# xmcd
#
# Track frame offsets:
#	150
#	21732
#	37992
#	57625
#	78942
#	98435
#	117275
#	133617
#	147667
#	168617
#	188117
#	205085
#
# Disc length: 3069 seconds
#
# Revision: 1
# Processed by: cddbd v1.5.2PL0 Copyright (c) Steve Scherf et al.
# Submitted via: EZCDAudioConverter 7.1.0.1
#
DISCID=ab0bfb0c
DTITLE=OS TRAPALHÕES - OS TRAPALHÕES - 25 ANOS - AMIGOS DO PEITO - [CD 850.126
DTITLE=_2-464181 - COLUMBIA - 1991
DYEAR=1991
DGENRE=INFANTIL
TTITLE0=TRAPALHADAS (BY GILMAR SINISTRO)
TTITLE1=KIBE CRU (BY GILMAR SINISTRO)
TTITLE2=AMIGOS DO PEITO (PART. ESP. CHITÃOZINHO and XORORÓ) (BY GILMAR SINISTRO)
TTITLE3=A PULGA (PATA-PATA) (PART. ESP. JORGE LAFFOND) (BY GILMAR SINISTRO)
TTITLE4=EU QUERO (BY GILMAR SINISTRO)
TTITLE5=NATUREZA (BY GILMAR SINISTRO)
TTITLE6=PULA VEADINHO (BY GILMAR SINISTRO)
TTITLE7=MARCIANITA (BY GILMAR SINISTRO)
TTITLE8=ROXO DE PAIXÃO (BY GILMAR SINISTRO)
TTITLE9=ANJO TRAPALHÃO (PART. ESP. DUDA LITTLE) (BY GILMAR SINISTRO)
TTITLE10=ESTRELA DISTANTE (BY GILMAR SINISTRO)
TTITLE11=FILHOS DE CHAPLIN (PART. ESP. PATRICIA) (BY GILMAR SINISTRO)
EXTD=
EXTT0=
EXTT1=
EXTT2=
EXTT3=
EXTT4=
EXTT5=
EXTT6=
EXTT7=
EXTT8=
EXTT9=
EXTT10=
EXTT11=
PLAYORDER=
